<?xml version="1.0" encoding="UTF-8"?>
<svg version="1.1" xmlns="http://www.w3.org/2000/svg" width="220" height="220">
<path d="M0 0 C0.75640778 -0.00807175 1.51281555 -0.01614349 2.29214478 -0.02445984 C3.89412174 -0.03825704 5.49612756 -0.04899861 7.09814453 -0.05688477 C8.70760961 -0.06831425 10.31703956 -0.08861984 11.92626953 -0.1184082 C23.0770893 -0.32430842 32.52646759 0.78993556 43.1640625 4.23828125 C44.29489258 4.58084961 45.42572266 4.92341797 46.59082031 5.27636719 C52.11603457 6.96193272 57.07195462 9.02633438 62.03125 11.9921875 C64.25424174 13.32976478 64.25424174 13.32976478 67.0546875 14.625 C75.98906205 19.26054861 88.77087499 27.34148433 92.1640625 37.23828125 C92.7621875 37.51027344 93.3603125 37.78226563 93.9765625 38.0625 C96.86521416 39.61515027 98.07883816 41.54034462 99.9140625 44.23828125 C100.83445313 45.56859375 100.83445313 45.56859375 101.7734375 46.92578125 C103.1640625 49.23828125 103.1640625 49.23828125 103.1640625 51.23828125 C103.8240625 51.23828125 104.4840625 51.23828125 105.1640625 51.23828125 C113.41018033 66.22361213 120.22329521 82.7534999 120.40234375 100.07421875 C120.4104155 100.83062653 120.41848724 101.5870343 120.42680359 102.36636353 C120.44060079 103.96834049 120.45134236 105.57034631 120.45922852 107.17236328 C120.470658 108.78182836 120.49096359 110.39125831 120.52075195 112.00048828 C120.72699828 123.17005217 119.54802902 132.5702828 116.1640625 143.23828125 C115.7379796 144.88170202 115.31892858 146.52700536 114.9140625 148.17578125 C112.68957255 155.57818 108.7291934 162.41287625 105.1640625 169.23828125 C104.5040625 169.23828125 103.8440625 169.23828125 103.1640625 169.23828125 C102.90625 169.96402344 102.6484375 170.68976563 102.3828125 171.4375 C101.11163751 174.35875792 99.62389848 176.54700774 97.6640625 179.05078125 C97.055625 179.84097656 96.4471875 180.63117188 95.8203125 181.4453125 C95.27375 182.03699219 94.7271875 182.62867188 94.1640625 183.23828125 C93.5040625 183.23828125 92.8440625 183.23828125 92.1640625 183.23828125 C91.80828125 184.34042969 91.80828125 184.34042969 91.4453125 185.46484375 C86.96131433 195.17105931 73.56792643 202.82422267 64.1640625 207.23828125 C62.41354894 208.23738199 60.66361058 209.23749081 58.9140625 210.23828125 C54.6973649 212.53932859 50.71131035 214.27394992 46.06152344 215.46679688 C44.02902328 216.00797487 42.00980473 216.60039085 40.00292969 217.22998047 C30.71392073 220.01770758 22.154321 220.86635059 12.47558594 220.75976562 C10.16494917 220.73828949 7.85741945 220.75971188 5.546875 220.78515625 C-4.54442274 220.80415059 -13.22396881 219.35104882 -22.8359375 216.23828125 C-23.63644531 215.99223145 -24.43695313 215.74618164 -25.26171875 215.49267578 C-43.67846317 209.62345602 -59.48775073 199.05610538 -71.8359375 184.23828125 C-73.0115625 183.12453125 -73.0115625 183.12453125 -74.2109375 181.98828125 C-77.94894393 178.07227452 -80.86744792 173.75471711 -83.8359375 169.23828125 C-84.41601562 168.37589844 -84.99609375 167.51351562 -85.59375 166.625 C-100.13782884 143.56970013 -104.23617888 111.83989882 -98.3671875 85.29541016 C-94.57719087 70.61962359 -88.57980157 57.57467467 -79.8359375 45.23828125 C-79.24425781 44.38621094 -78.65257813 43.53414062 -78.04296875 42.65625 C-73.69615571 36.63328797 -68.52886956 31.9823913 -62.8359375 27.23828125 C-62.0934375 26.45453125 -61.3509375 25.67078125 -60.5859375 24.86328125 C-50.40114123 15.14143026 -37.73885531 9.13848734 -24.4609375 4.92578125 C-23.40777344 4.57966797 -22.35460937 4.23355469 -21.26953125 3.87695312 C-14.01829301 1.51961141 -7.65642052 0.07914631 0 0 Z " fill="#F5F5F5" transform="translate(99.8359375,-0.23828125)"/>
<path d="M0 0 C1.28265244 0.00303635 1.28265244 0.00303635 2.59121704 0.00613403 C3.93501938 0.00350555 3.93501938 0.00350555 5.30596924 0.00082397 C8.28258166 -0.0035959 11.25913521 -0.00065608 14.23574829 0.00271606 C16.2945863 0.00204306 18.35342423 0.00107307 20.41226196 -0.00018311 C24.73331456 -0.00166026 29.05434652 0.00049505 33.37539673 0.00515747 C38.92761375 0.01085477 44.47978244 0.00757586 50.03199768 0.00158501 C54.2851905 -0.00202012 58.53837178 -0.00088224 62.79156494 0.0017128 C64.83939622 0.0023822 66.88722852 0.00155319 68.93505859 -0.00076675 C71.79182737 -0.00329249 74.64851672 0.0005462 77.50527954 0.00613403 C78.36038116 0.0041098 79.21548279 0.00208557 80.09649658 0 C85.9339859 0.02126618 85.9339859 0.02126618 87.04824829 1.13552856 C87.15900281 3.81422479 87.20987719 6.47148176 87.22402954 9.15115356 C87.24723631 10.81132237 87.27135399 12.47147865 87.29629517 14.13162231 C87.33136498 16.75621813 87.36072178 19.38035627 87.37417603 22.00515747 C87.3896833 24.53355901 87.42991971 27.06061011 87.47402954 29.58865356 C87.47212112 30.36903992 87.47021271 31.14942627 87.46824646 31.95346069 C87.58203601 37.03997524 88.58824591 39.45919788 92.04824829 43.13552856 C93.90629247 48.70966109 93.85456213 54.07828425 91.36074829 59.44802856 C88.71000052 64.15942831 85.00999589 67.06667267 80.04824829 69.13552856 C74.48299184 69.80211917 69.60651357 69.9146612 64.54824829 67.38552856 C62.04824829 65.13552856 62.04824829 65.13552856 60.11074829 62.94802856 C57.26703463 60.44900747 54.7453209 60.41991876 51.04824829 60.13552856 C51.04824829 63.10552856 51.04824829 66.07552856 51.04824829 69.13552856 C52.36824829 69.46552856 53.68824829 69.79552856 55.04824829 70.13552856 C56.03824829 71.12552856 56.03824829 71.12552856 57.04824829 72.13552856 C56.7185335 75.43267649 56.42556439 76.75821246 54.04824829 79.13552856 C49.41969018 79.59785014 44.75970032 79.45950746 40.11074829 79.44802856 C38.1587854 79.47219849 38.1587854 79.47219849 36.16738892 79.49685669 C34.30050415 79.49782349 34.30050415 79.49782349 32.39590454 79.49880981 C31.25129761 79.50179077 30.10669067 79.50477173 28.92739868 79.50784302 C26.04824829 79.13552856 26.04824829 79.13552856 24.13980103 77.77297974 C23.04824829 76.13552856 23.04824829 76.13552856 23.23574829 73.57302856 C24.04824829 71.13552856 24.04824829 71.13552856 26.04824829 69.13552856 C27.03824829 69.13552856 28.02824829 69.13552856 29.04824829 69.13552856 C29.04824829 66.16552856 29.04824829 63.19552856 29.04824829 60.13552856 C28.06429077 60.15123901 27.08033325 60.16694946 26.06655884 60.18313599 C22.41576321 60.23743834 18.76500328 60.27187941 15.11392212 60.30032349 C13.53378293 60.31540951 11.9536856 60.33588107 10.37368774 60.36184692 C8.10234244 60.39823983 5.8315507 60.41525619 3.55996704 60.42849731 C2.50044075 60.4517231 2.50044075 60.4517231 1.41950989 60.47541809 C-3.4629193 60.47709318 -3.4629193 60.47709318 -5.64009094 58.95582581 C-7.4469781 56.44826304 -7.31958033 54.74629939 -7.30819702 51.67019653 C-7.31119812 50.55248871 -7.31419922 49.43478088 -7.31729126 48.28320312 C-7.30494446 47.0768924 -7.29259766 45.87058167 -7.27987671 44.62771606 C-7.27706696 42.77317307 -7.27706696 42.77317307 -7.27420044 40.88116455 C-7.26574984 37.59670815 -7.24375913 34.31268917 -7.21603394 31.02835083 C-7.19233401 27.67997651 -7.19104548 24.33163808 -7.18612671 20.98318481 C-7.1769581 18.44802374 -7.16658278 15.91286669 -7.15487671 13.37771606 C-7.15062683 12.16735687 -7.14637695 10.95699768 -7.14199829 9.70996094 C-7.13239075 8.59855743 -7.1227832 7.48715393 -7.11288452 6.34207153 C-7.10605652 5.35850677 -7.09922852 4.37494202 -7.0921936 3.36157227 C-6.80644066 -1.16769264 -3.85694349 0.01405098 0 0 Z " fill="#C3C3C3" transform="translate(67.95175170898438,78.86447143554688)"/>
<path d="M0 0 C1.11433914 0.00303635 1.11433914 0.00303635 2.25119019 0.00613403 C3.41942825 0.00350555 3.41942825 0.00350555 4.61126709 0.00082397 C7.19829505 -0.00359493 9.78525522 -0.00065643 12.37228394 0.00271606 C14.16207899 0.00204304 15.95187396 0.00107302 17.7416687 -0.00018311 C21.49778105 -0.00166013 25.25386966 0.00049462 29.00997925 0.00515747 C33.83578887 0.01085476 38.66154288 0.00757578 43.48735046 0.00158501 C47.18466616 -0.00202048 50.88196858 -0.00088208 54.57928467 0.0017128 C56.35917162 0.0023821 58.13905975 0.00155353 59.91894531 -0.00076675 C62.40212216 -0.00329309 64.88520768 0.00054702 67.36837769 0.00613403 C68.11127045 0.0041098 68.85416321 0.00208557 69.61956787 0 C74.69552132 0.02126595 74.69552132 0.02126595 75.80978394 1.13552856 C75.89736396 3.13517839 75.9167497 5.13788966 75.90744019 7.13943481 C75.9026062 8.96184692 75.9026062 8.96184692 75.89767456 10.82107544 C75.8851062 12.74016724 75.8851062 12.74016724 75.87228394 14.69802856 C75.86777222 15.98129028 75.8632605 17.264552 75.85861206 18.58670044 C75.84677939 21.76968879 75.83029462 24.95258619 75.80978394 28.13552856 C74.99574097 28.11160034 74.181698 28.08767212 73.34298706 28.0630188 C71.73327026 28.03510254 71.73327026 28.03510254 70.09103394 28.00662231 C68.49871948 27.97072998 68.49871948 27.97072998 66.87423706 27.93411255 C62.31154718 28.23400254 58.97717126 29.86016212 55.80978394 33.13552856 C54.48978394 35.44552856 53.16978394 37.75552856 51.80978394 40.13552856 C32.66978394 40.13552856 13.52978394 40.13552856 -6.19021606 40.13552856 C-6.21084106 33.72115356 -6.23146606 27.30677856 -6.25271606 20.69802856 C-6.26182007 18.67105835 -6.27092407 16.64408813 -6.28030396 14.55569458 C-6.2832231 12.95860867 -6.28577166 11.36152201 -6.28787231 9.76443481 C-6.29298828 8.9274707 -6.29810425 8.09050659 -6.30337524 7.22817993 C-6.30368531 5.19694591 -6.25261794 3.16580385 -6.19021606 1.13552856 C-4.472982 -0.5817055 -2.2898944 0.00959362 0 0 Z " fill="#F1F1F1" transform="translate(73.19021606445313,83.86447143554688)"/>
<path d="M0 0 C1.28265244 0.00303635 1.28265244 0.00303635 2.59121704 0.00613403 C3.93501938 0.00350555 3.93501938 0.00350555 5.30596924 0.00082397 C8.28258166 -0.0035959 11.25913521 -0.00065608 14.23574829 0.00271606 C16.2945863 0.00204306 18.35342423 0.00107307 20.41226196 -0.00018311 C24.73331456 -0.00166026 29.05434652 0.00049505 33.37539673 0.00515747 C38.92761375 0.01085477 44.47978244 0.00757586 50.03199768 0.00158501 C54.2851905 -0.00202012 58.53837178 -0.00088224 62.79156494 0.0017128 C64.83939622 0.0023822 66.88722852 0.00155319 68.93505859 -0.00076675 C71.79182737 -0.00329249 74.64851672 0.0005462 77.50527954 0.00613403 C78.36038116 0.0041098 79.21548279 0.00208557 80.09649658 0 C85.9339859 0.02126618 85.9339859 0.02126618 87.04824829 1.13552856 C87.15900281 3.81422479 87.20987719 6.47148176 87.22402954 9.15115356 C87.24723631 10.81132237 87.27135399 12.47147865 87.29629517 14.13162231 C87.33136498 16.75621813 87.36072178 19.38035627 87.37417603 22.00515747 C87.3896833 24.53355901 87.42991971 27.06061011 87.47402954 29.58865356 C87.47212112 30.36903992 87.47021271 31.14942627 87.46824646 31.95346069 C87.58203601 37.03997524 88.58824591 39.45919788 92.04824829 43.13552856 C93.90629247 48.70966109 93.85456213 54.07828425 91.36074829 59.44802856 C88.71000052 64.15942831 85.00999589 67.06667267 80.04824829 69.13552856 C74.81683698 69.76213215 69.04187419 70.28931812 64.42324829 67.38552856 C62.26009084 65.3362215 61.04214976 63.91845269 60.04824829 61.13552856 C62.27865442 62.20942781 64.19820842 63.25020396 66.17324829 64.76052856 C70.97143641 67.05531419 76.02363137 67.0463507 81.11074829 65.51443481 C85.4071814 63.43103514 87.52874366 60.56018224 89.38809204 56.21365356 C90.88082469 51.51463717 90.62463958 47.79531389 88.42324829 43.44802856 C86.10754575 39.90260813 83.99053621 37.89547853 80.04824829 36.13552856 C74.29019137 35.28663561 68.88825825 35.0234778 63.92324829 38.38552856 C59.73254533 42.39402705 58.83289338 45.15049734 58.42324829 50.88552856 C58.34848267 51.87037231 58.27371704 52.85521606 58.19668579 53.86990356 C58.12320923 54.99138794 58.12320923 54.99138794 58.04824829 56.13552856 C57.38824829 56.13552856 56.72824829 56.13552856 56.04824829 56.13552856 C56.04824829 53.16552856 56.04824829 50.19552856 56.04824829 47.13552856 C35.91824829 47.13552856 15.78824829 47.13552856 -4.95175171 47.13552856 C-4.95175171 50.43552856 -4.95175171 53.73552856 -4.95175171 57.13552856 C-5.61175171 57.13552856 -6.27175171 57.13552856 -6.95175171 57.13552856 C-6.97488086 49.85131308 -6.99266972 42.56710547 -7.00356388 35.28286076 C-7.00879146 31.90081044 -7.01588682 28.51878517 -7.02719116 25.13674927 C-7.04009438 21.25223079 -7.04498095 17.3677226 -7.04940796 13.48318481 C-7.05456924 12.26341446 -7.05973053 11.0436441 -7.06504822 9.78691101 C-7.06512375 8.66582443 -7.06519928 7.54473785 -7.0652771 6.38967896 C-7.06749771 5.39706558 -7.06971832 4.40445221 -7.07200623 3.38175964 C-6.82815133 -1.17319977 -3.87032029 0.01409971 0 0 Z M-0.95175171 6.13552856 C-1.04039683 9.01964031 -1.06703697 11.88035665 -1.04940796 14.76443481 C-1.04840088 15.53009766 -1.0473938 16.2957605 -1.0463562 17.08462524 C-1.04110834 19.95577483 -1.02714718 22.82690314 -1.01425171 25.69802856 C-0.99362671 32.11240356 -0.97300171 38.52677856 -0.95175171 45.13552856 C18.18824829 45.13552856 37.32824829 45.13552856 57.04824829 45.13552856 C58.36824829 42.82552856 59.68824829 40.51552856 61.04824829 38.13552856 C64.21563562 34.86016212 67.55001153 33.23400254 72.11270142 32.93411255 C73.70501587 32.97000488 73.70501587 32.97000488 75.32949829 33.00662231 C76.93921509 33.03453857 76.93921509 33.03453857 78.58145142 33.0630188 C79.39549438 33.08694702 80.20953735 33.11087524 81.04824829 33.13552856 C81.07711168 28.65637528 81.09500016 24.17724565 81.11074829 19.69802856 C81.12331665 17.77893677 81.12331665 17.77893677 81.13613892 15.82107544 C81.1409729 13.99866333 81.1409729 13.99866333 81.14590454 12.13943481 C81.15375977 10.45056152 81.15375977 10.45056152 81.16177368 8.72756958 C81.34370277 6.20581986 81.34370277 6.20581986 80.04824829 5.13552856 C77.55871132 5.0351899 75.09689876 4.99934914 72.60684204 5.00613403 C71.82801666 5.00438171 71.04919128 5.00262939 70.24676514 5.00082397 C67.65973718 4.99640507 65.072777 4.99934357 62.48574829 5.00271606 C60.69595323 5.00204304 58.90615827 5.00107302 57.11636353 4.99981689 C53.36025118 4.99833987 49.60416257 5.00049462 45.84805298 5.00515747 C41.02224336 5.01085476 36.19648934 5.00757578 31.37068176 5.00158501 C27.67336606 4.99797952 23.97606365 4.99911792 20.27874756 5.0017128 C18.49886061 5.0023821 16.71897248 5.00155353 14.93908691 4.99923325 C12.45591007 4.99670691 9.97282455 5.00054702 7.48965454 5.00613403 C6.74676178 5.0041098 6.00386902 5.00208557 5.23846436 5 C1.85702616 4.71394406 1.85702616 4.71394406 -0.95175171 6.13552856 Z " fill="#0F0F0F" transform="translate(67.95175170898438,78.86447143554688)"/>
<path d="M0 0 C1.65 0 3.3 0 5 0 C4.67 2.31 4.34 4.62 4 7 C5.98 7 7.96 7 10 7 C9.34 4.69 8.68 2.38 8 0 C24.83 0 41.66 0 59 0 C59.495 4.455 59.495 4.455 60 9 C40.2 9 20.4 9 0 9 C0 6.03 0 3.06 0 0 Z " fill="#F4F4F4" transform="translate(64,127)"/>
<path d="M0 0 C2.31 0 4.62 0 7 0 C7 1.32 7 2.64 7 4 C8.65 3.67 10.3 3.34 12 3 C13.625 4.5625 13.625 4.5625 15 7 C14.1875 10.75 14.1875 10.75 13 14 C13.66 14 14.32 14 15 14 C14.49396008 16.16874252 14.00016187 17.99967627 13 20 C11.35 20 9.7 20 8 20 C7.34 21.32 6.68 22.64 6 24 C4.02 24 2.04 24 0 24 C0 22.68 0 21.36 0 20 C-0.94875 20.061875 -1.8975 20.12375 -2.875 20.1875 C-3.90625 20.125625 -4.9375 20.06375 -6 20 C-8.59295592 16.11056612 -7.70986703 14.49582454 -7 10 C-7.185625 9.2575 -7.37125 8.515 -7.5625 7.75 C-7.706875 7.1725 -7.85125 6.595 -8 6 C-7.34 5.01 -6.68 4.02 -6 3 C-3.375 2.8125 -3.375 2.8125 -1 3 C-0.67 2.01 -0.34 1.02 0 0 Z " fill="#E8E8E7" transform="translate(139,118)"/>
<path d="M0 0 C2.31 0 4.62 0 7 0 C7.33 1.32 7.66 2.64 8 4 C9.175625 3.9071875 9.175625 3.9071875 10.375 3.8125 C11.674375 3.9053125 11.674375 3.9053125 13 4 C15 7 15 7 14.6875 9 C14.460625 9.66 14.23375 10.32 14 11 C13.67 11.99 13.34 12.98 13 14 C13.66 14 14.32 14 15 14 C14.125 18.75 14.125 18.75 13 21 C11.35 21 9.7 21 8 21 C7.67 21.99 7.34 22.98 7 24 C4.69 24 2.38 24 0 24 C0 22.68 0 21.36 0 20 C-0.94875 20.061875 -1.8975 20.12375 -2.875 20.1875 C-3.90625 20.125625 -4.9375 20.06375 -6 20 C-8 17 -8 17 -8 14 C-7.34 14 -6.68 14 -6 14 C-6 12.68 -6 11.36 -6 10 C-6.66 10 -7.32 10 -8 10 C-7.49396008 7.83125748 -7.00016187 6.00032373 -6 4 C-4.35 4 -2.7 4 -1 4 C-0.67 2.68 -0.34 1.36 0 0 Z " fill="#272727" transform="translate(80,89)"/>
<path d="M0 0 C2.31 0 4.62 0 7 0 C7 0.33 7 0.66 7 1 C5.35 1 3.7 1 2 1 C2 4.3 2 7.6 2 11 C3.32 11.33 4.64 11.66 6 12 C6.66 12.66 7.32 13.32 8 14 C7.67028521 17.29714793 7.3773161 18.6226839 5 21 C0.37144189 21.46232157 -4.28854797 21.32397889 -8.9375 21.3125 C-10.88946289 21.33666992 -10.88946289 21.33666992 -12.88085938 21.36132812 C-14.74774414 21.36229492 -14.74774414 21.36229492 -16.65234375 21.36328125 C-17.79695068 21.36626221 -18.94155762 21.36924316 -20.12084961 21.37231445 C-23 21 -23 21 -24.90844727 19.63745117 C-26 18 -26 18 -25.8125 15.4375 C-25 13 -25 13 -23 11 C-21.68 11 -20.36 11 -19 11 C-19 8.36 -19 5.72 -19 3 C-18.67 3 -18.34 3 -18 3 C-18 5.64 -18 8.28 -18 11 C-12.06 11 -6.12 11 0 11 C0 7.37 0 3.74 0 0 Z " fill="#111111" transform="translate(117,137)"/>
<path d="M0 0 C10.67419698 -0.02312328 21.34838806 -0.04091501 32.02260494 -0.05181217 C36.97853922 -0.05704103 41.93445642 -0.06413874 46.89038086 -0.07543945 C51.66898836 -0.08626822 56.44757938 -0.09227681 61.2261982 -0.09487724 C63.05353619 -0.09673151 64.88087324 -0.10035216 66.70820427 -0.10573006 C69.25853329 -0.11294036 71.80879337 -0.11399095 74.35913086 -0.11352539 C75.12229614 -0.11712067 75.88546143 -0.12071594 76.67175293 -0.12442017 C81.88594784 -0.11405216 81.88594784 -0.11405216 83 1 C83.08783542 3.21855264 83.10694609 5.43988496 83.09765625 7.66015625 C83.0962413 8.32462265 83.09482635 8.98908905 83.09336853 9.6736908 C83.08775518 11.80333899 83.07520054 13.93288339 83.0625 16.0625 C83.05748671 17.50325369 83.05292351 18.94400903 83.04882812 20.38476562 C83.03778145 23.92321102 83.02050792 27.46159539 83 31 C83.66 31 84.32 31 85 31 C85 22.09 85 13.18 85 4 C85.66 4 86.32 4 87 4 C87.0093457 4.88260498 87.01869141 5.76520996 87.02832031 6.67456055 C87.07246114 9.96456672 87.13412676 13.25329074 87.20751953 16.54272461 C87.23566014 17.96350192 87.25690908 19.38443378 87.27099609 20.80541992 C87.29252394 22.85415359 87.33921514 24.901043 87.390625 26.94921875 C87.4220459 28.79519653 87.4220459 28.79519653 87.45410156 30.6784668 C88.09165895 34.55770125 89.40585305 36.12084727 92 39 C93.85804418 44.57413253 93.80631384 49.94275568 91.3125 55.3125 C88.66175223 60.02389974 84.9617476 62.93114411 80 65 C74.76858869 65.62660358 68.9936259 66.15378955 64.375 63.25 C62.21184255 61.20069294 60.99390147 59.78292412 60 57 C62.23040612 58.07389924 64.14996013 59.11467539 66.125 60.625 C70.92318812 62.91978562 75.97538308 62.91082214 81.0625 61.37890625 C85.35893311 59.29550658 87.48049537 56.42465367 89.33984375 52.078125 C90.88470934 47.21499781 90.4368664 44.01353005 88.4375 39.375 C86.01551276 35.50156915 82.81916213 33.42369905 79 31 C79.99 30.505 79.99 30.505 81 30 C80.67 20.76 80.34 11.52 80 2 C53.6 1.67 27.2 1.34 0 1 C0 0.67 0 0.34 0 0 Z " fill="#020202" transform="translate(68,83)"/>
<path d="M0 0 C29.7 0 59.4 0 90 0 C90 10.89 90 21.78 90 33 C89.34 33 88.68 33 88 33 C87.97494385 32.09644775 87.9498877 31.19289551 87.92407227 30.26196289 C87.82912683 26.9203572 87.72988379 23.57893748 87.62768555 20.23754883 C87.5842837 18.7893576 87.54261256 17.34111346 87.50268555 15.89282227 C87.44510938 13.81510441 87.38137972 11.73765427 87.31640625 9.66015625 C87.27974854 8.40855713 87.24309082 7.15695801 87.20532227 5.86743164 C87.32196094 3.10369496 87.32196094 3.10369496 86 2 C83.44948526 1.89962269 80.92602821 1.86382513 78.375 1.87060547 C77.57666748 1.86885315 76.77833496 1.86710083 75.95581055 1.86529541 C73.3038519 1.86087633 70.65195938 1.86381508 68 1.8671875 C66.16536445 1.86651448 64.33072899 1.86554447 62.49609375 1.86428833 C58.64582472 1.86281128 54.79557884 1.86496614 50.9453125 1.86962891 C45.99843503 1.8753262 41.05161181 1.87204723 36.10473633 1.86605644 C32.31477445 1.86245102 28.52482554 1.86358933 24.73486328 1.86618423 C22.91031895 1.86685356 21.08577345 1.8660249 19.26123047 1.86370468 C16.71578839 1.86117846 14.17043541 1.8650183 11.625 1.87060547 C10.48260864 1.86756912 10.48260864 1.86756912 9.31713867 1.86447144 C5.86903451 1.56680905 5.86903451 1.56680905 3 3 C2.83970312 5.95529504 2.74042672 8.88982457 2.68359375 11.84765625 C2.66281265 12.7340831 2.64203156 13.62050995 2.62062073 14.53379822 C2.555026 17.376617 2.49619448 20.21953117 2.4375 23.0625 C2.3943242 24.98503606 2.35071022 26.90756234 2.30664062 28.83007812 C2.19933457 33.55328668 2.09809549 38.27659153 2 43 C1.34 43 0.68 43 0 43 C0 28.81 0 14.62 0 0 Z " fill="#CBCBCB" transform="translate(63,81)"/>
<path d="M0 0 C0.66 0.33 1.32 0.66 2 1 C2 0.34 2 -0.32 2 -1 C4.475 -0.01 4.475 -0.01 7 1 C7 2.32 7 3.64 7 5 C7.66 5.33 8.32 5.66 9 6 C9.1875 8.375 9.1875 8.375 9 11 C8.01 11.66 7.02 12.32 6 13 C5.67 13.99 5.34 14.98 5 16 C2.05610218 17.17755913 1.10046087 17.03348696 -2 16 C-2.70125 15.87625 -3.4025 15.7525 -4.125 15.625 C-5.053125 15.315625 -5.053125 15.315625 -6 15 C-6.33 14.01 -6.66 13.02 -7 12 C-6.67 11.34 -6.34 10.68 -6 10 C-6.99 10 -7.98 10 -9 10 C-9 8.02 -9 6.04 -9 4 C-8.01 4 -7.02 4 -6 4 C-6 2.68 -6 1.36 -6 0 C-3.4832097 -1.25839515 -2.62168527 -0.81927665 0 0 Z " fill="#181818" transform="translate(104,104)"/>
<path d="M0 0 C0.99 0.99 0.99 0.99 2 2 C-0.50090922 3.25045461 -2.39566354 3.14217735 -5.1875 3.25 C-10.96375094 3.72756405 -13.73876078 5.10141943 -18 9 C-20.01978596 12.19167543 -20.35820469 15.01486573 -20.625 18.75 C-20.69976562 19.73484375 -20.77453125 20.7196875 -20.8515625 21.734375 C-20.90054688 22.48203125 -20.94953125 23.2296875 -21 24 C-21.66 24 -22.32 24 -23 24 C-23 21.03 -23 18.06 -23 15 C-42.47 15 -61.94 15 -82 15 C-81.67 14.34 -81.34 13.68 -81 13 C-61.53 13 -42.06 13 -22 13 C-21.67 11.68 -21.34 10.36 -21 9 C-15.52174296 1.33044014 -9.46000614 -1.31010876 0 0 Z " fill="#212121" transform="translate(147,111)"/>
<path d="M0 0 C11.97803559 -0.0231219 23.95606591 -0.0409143 35.93411922 -0.05181217 C41.49539411 -0.05704134 47.05665379 -0.06413958 52.61791992 -0.07543945 C57.98007419 -0.08626715 63.34221378 -0.09227658 68.70437813 -0.09487724 C70.75500278 -0.09673171 72.8056266 -0.10035272 74.85624504 -0.10573006 C77.71790203 -0.11293893 80.57949757 -0.11399101 83.44116211 -0.11352539 C84.72617111 -0.1189183 84.72617111 -0.1189183 86.03713989 -0.12442017 C91.88594784 -0.11405216 91.88594784 -0.11405216 93 1 C93.04092937 3.33297433 93.04241723 5.66705225 93 8 C92.34 8 91.68 8 91 8 C91 6.02 91 4.04 91 2 C89.33416367 2.00666183 89.33416367 2.00666183 87.63467407 2.01345825 C77.18684669 2.05393922 66.73903514 2.08395302 56.29114723 2.10362434 C50.91932542 2.1140774 45.54756673 2.12826429 40.17578125 2.15087891 C34.99516552 2.17255311 29.81461065 2.18455715 24.63395309 2.18975449 C22.65392473 2.19346002 20.67389982 2.20069562 18.69389725 2.21146011 C15.92818154 2.22590302 13.16271979 2.22798098 10.39697266 2.22705078 C9.57194748 2.23424133 8.7469223 2.24143188 7.89689636 2.24884033 C2.22810432 2.22810432 2.22810432 2.22810432 0 0 Z " fill="#3A3A3A" transform="translate(62,79)"/>
<path d="M0 0 C2.31 0 4.62 0 7 0 C7 1.32 7 2.64 7 4 C8.65 3.67 10.3 3.34 12 3 C13.625 4.5625 13.625 4.5625 15 7 C14.1875 10.75 14.1875 10.75 13 14 C13.66 14 14.32 14 15 14 C14.49396008 16.16874252 14.00016187 17.99967627 13 20 C11.35 20 9.7 20 8 20 C7.34 21.32 6.68 22.64 6 24 C4.02 24 2.04 24 0 24 C0 22.68 0 21.36 0 20 C-0.94875 20.061875 -1.8975 20.12375 -2.875 20.1875 C-3.90625 20.125625 -4.9375 20.06375 -6 20 C-8.59295592 16.11056612 -7.70986703 14.49582454 -7 10 C-7.185625 9.2575 -7.37125 8.515 -7.5625 7.75 C-7.706875 7.1725 -7.85125 6.595 -8 6 C-7.34 5.01 -6.68 4.02 -6 3 C-3.375 2.8125 -3.375 2.8125 -1 3 C-0.67 2.01 -0.34 1.02 0 0 Z M2 2 C2 2.99 2 3.98 2 5 C-0.31 5.33 -2.62 5.66 -5 6 C-5 6.99 -5 7.98 -5 9 C-5 11.66666667 -5 14.33333333 -5 17 C-4.030625 17.28875 -3.06125 17.5775 -2.0625 17.875 C1 19 1 19 2 21 C2.66 21 3.32 21 4 21 C4.433125 20.525625 4.86625 20.05125 5.3125 19.5625 C7.44693733 17.58616914 9.16307947 17.38336764 12 17 C11.34 14.36 10.68 11.72 10 9 C10.66 9 11.32 9 12 9 C11.67 8.01 11.34 7.02 11 6 C8.03 5.505 8.03 5.505 5 5 C5 4.01 5 3.02 5 2 C4.01 2 3.02 2 2 2 Z " fill="#161616" transform="translate(139,118)"/>
<path d="M0 0 C0.99 0 1.98 0 3 0 C3 0.99 3 1.98 3 3 C5.31 3.33 7.62 3.66 10 4 C9.34 6.64 8.68 9.28 8 12 C8.66 12 9.32 12 10 12 C10 12.99 10 13.98 10 15 C8.02 15.33 6.04 15.66 4 16 C3.67 16.99 3.34 17.98 3 19 C2.01 19 1.02 19 0 19 C-0.33 18.01 -0.66 17.02 -1 16 C-3.97 15.505 -3.97 15.505 -7 15 C-7 14.01 -7 13.02 -7 12 C-6.34 12 -5.68 12 -5 12 C-5.66 9.36 -6.32 6.72 -7 4 C-3.535 3.505 -3.535 3.505 0 3 C0 2.01 0 1.02 0 0 Z " fill="#E3E3E3" transform="translate(82,92)"/>
<path d="M0 0 C1.084021 0.00523682 2.16804199 0.01047363 3.28491211 0.01586914 C5.03964844 0.02070313 5.03964844 0.02070313 6.82983398 0.02563477 C8.67738281 0.03820312 8.67738281 0.03820312 10.56225586 0.05102539 C12.41560547 0.05779297 12.41560547 0.05779297 14.30639648 0.06469727 C17.37089703 0.07652931 20.43530307 0.09301366 23.49975586 0.11352539 C23.88194353 1.76967196 24.21370688 3.43809563 24.49975586 5.11352539 C23.49975586 6.11352539 23.49975586 6.11352539 20.99951172 6.22705078 C19.91549072 6.22181396 18.83146973 6.21657715 17.71459961 6.21118164 C16.54477539 6.20795898 15.37495117 6.20473633 14.16967773 6.20141602 C12.93797852 6.19303711 11.7062793 6.1846582 10.43725586 6.17602539 C8.58390625 6.16925781 8.58390625 6.16925781 6.69311523 6.16235352 C3.62861469 6.15052147 0.56420864 6.13403712 -2.50024414 6.11352539 C-2.88243181 4.45737882 -3.21419516 2.78895515 -3.50024414 1.11352539 C-2.50024414 0.11352539 -2.50024414 0.11352539 0 0 Z " fill="#E8E8E8" transform="translate(97.500244140625,149.886474609375)"/>
<path d="M0 0 C5.94 0 11.88 0 18 0 C18 2.97 18 5.94 18 9 C12.06 9 6.12 9 0 9 C0 6.03 0 3.06 0 0 Z " fill="#F2F2F2" transform="translate(99,139)"/>
<path d="M0 0 C2.35546875 0.5234375 2.35546875 0.5234375 5 2 C6.03692752 4.64431374 6.72879684 6.8858908 7.3125 9.625 C7.56483398 10.68460938 7.56483398 10.68460938 7.82226562 11.765625 C8.23384828 13.50603164 8.61947061 15.25254101 9 17 C11.19618509 13.70572237 11.96423202 10.79781593 13 7 C13.33 6.34 13.66 5.68 14 5 C15.32 5.99 16.64 6.98 18 8 C17.01 8.495 17.01 8.495 16 9 C15.06986518 10.72341108 15.06986518 10.72341108 14.2734375 12.81640625 C13.9640625 13.58017578 13.6546875 14.34394531 13.3359375 15.13085938 C13.01882812 15.93330078 12.70171875 16.73574219 12.375 17.5625 C12.05015625 18.36880859 11.7253125 19.17511719 11.390625 20.00585938 C10.58765894 22.0014662 9.79304298 24.00042907 9 26 C8.34 26 7.68 26 7 26 C5.68 19.73 4.36 13.46 3 7 C-0.91085573 14.07972463 -0.91085573 14.07972463 -1 21 C-2.98 20.34 -4.96 19.68 -7 19 C-6.55011719 18.60425781 -6.10023438 18.20851563 -5.63671875 17.80078125 C-1.88778837 13.6760631 -0.12694216 7.84066136 0.25 2.375 C0.1675 1.59125 0.085 0.8075 0 0 Z " fill="#423E3F" transform="translate(141,41)"/>
<path d="M0 0 C0.66 0.66 1.32 1.32 2 2 C2.45117188 2.44859375 2.90234375 2.8971875 3.3671875 3.359375 C4.5908881 4.58893063 5.80246773 5.83056971 7.0078125 7.078125 C7.70648438 7.79484375 8.40515625 8.5115625 9.125 9.25 C10.11886719 10.27867188 10.11886719 10.27867188 11.1328125 11.328125 C12.99636642 13.21948202 12.99636642 13.21948202 16 14 C16 14.66 16 15.32 16 16 C13.69 16.99 11.38 17.98 9 19 C9.20625 18.38125 9.4125 17.7625 9.625 17.125 C9.74875 16.42375 9.8725 15.7225 10 15 C9.34 14.34 8.68 13.68 8 13 C5.39719432 13.32041397 5.39719432 13.32041397 3 14 C2.67 15.98 2.34 17.96 2 20 C3.32 19.67 4.64 19.34 6 19 C6 19.66 6 20.32 6 21 C3.69 21.66 1.38 22.32 -1 23 C-1.02887512 19.35418313 -1.04675585 15.70839537 -1.0625 12.0625 C-1.07087891 11.02158203 -1.07925781 9.98066406 -1.08789062 8.90820312 C-1.09272461 7.42416992 -1.09272461 7.42416992 -1.09765625 5.91015625 C-1.10289307 4.99371338 -1.10812988 4.07727051 -1.11352539 3.13305664 C-1 1 -1 1 0 0 Z " fill="#494546" transform="translate(54,47)"/>
<path d="M0 0 C0.99 0 1.98 0 3 0 C3.19335938 1.18078125 3.38671875 2.3615625 3.5859375 3.578125 C3.84862276 5.13547331 4.11166218 6.69276191 4.375 8.25 C4.50132813 9.02730469 4.62765625 9.80460937 4.7578125 10.60546875 C5.67947749 16.033716 5.67947749 16.033716 8 21 C5.36 21 2.72 21 0 21 C0.99 20.67 1.98 20.34 3 20 C2.67 18.02 2.34 16.04 2 14 C0.02 14 -1.96 14 -4 14 C-4.66 15.65 -5.32 17.3 -6 19 C-5.01 19.33 -4.02 19.66 -3 20 C-5.31 20 -7.62 20 -10 20 C-6.66666667 13.33333333 -3.33333333 6.66666667 0 0 Z " fill="#3B3738" transform="translate(115,36)"/>
<path d="M0 0 C20.13 0 40.26 0 61 0 C61 2.31 61 4.62 61 7 C60.67 7 60.34 7 60 7 C60 5.02 60 3.04 60 1 C43.5 1.33 27 1.66 10 2 C10.33 2.33 10.66 2.66 11 3 C11.04063832 4.66617115 11.042721 6.33388095 11 8 C9.0085944 8.38133299 7.00720923 8.71325582 5 9 C4 8 4 8 3.875 5.5 C4 3 4 3 5 2 C3.68 1.67 2.36 1.34 1 1 C1 3.97 1 6.94 1 10 C0.67 10 0.34 10 0 10 C0 6.7 0 3.4 0 0 Z " fill="#7D7D7D" transform="translate(63,126)"/>
<path d="M0 0 C3 1 3 1 4.1875 3 C5.99112191 9.65952706 5.61041624 15.22821777 2.20703125 21.27734375 C-0.38406956 24.97532258 -3.88730389 27.28516558 -8 29 C-13.23141131 29.62660358 -19.0063741 30.15378955 -23.625 27.25 C-25.78815745 25.20069294 -27.00609853 23.78292412 -28 21 C-25.76959388 22.07389924 -23.85003987 23.11467539 -21.875 24.625 C-17.07681188 26.91978562 -12.02461692 26.91082214 -6.9375 25.37890625 C-2.64083746 23.29539532 -0.53299859 20.42422851 1.34765625 16.08984375 C2.59585032 12.0911382 2.70649861 8.58962186 1 4.75 C0.67 4.1725 0.34 3.595 0 3 C0 2.01 0 1.02 0 0 Z " fill="#1C1C1C" transform="translate(156,119)"/>
<path d="M0 0 C5.75 2.75 5.75 2.75 8 5 C7.625 7.125 7.625 7.125 7 9 C6.34 9 5.68 9 5 9 C5.020625 9.804375 5.04125 10.60875 5.0625 11.4375 C5 14 5 14 4 15 C-0.22032739 15.46892527 -2.6102211 14.51812147 -6 12 C-6 11.34 -6 10.68 -6 10 C-5.38125 9.4225 -4.7625 8.845 -4.125 8.25 C-1.65892567 5.63886247 -0.93542439 3.42988945 0 0 Z " fill="#3A3637" transform="translate(37,154)"/>
<path d="M0 0 C0 0.66 0 1.32 0 2 C-0.99 2.495 -0.99 2.495 -2 3 C-4.68029846 8.61879081 -5.335321 13.85244834 -5 20 C-4.01 20.33 -3.02 20.66 -2 21 C-4.31 21.33 -6.62 21.66 -9 22 C-8.87625 20.845 -8.7525 19.69 -8.625 18.5 C-8.59966637 13.76261151 -10.52508462 11.18686854 -13.39453125 7.56640625 C-15.02258572 5.75015731 -15.02258572 5.75015731 -18 5 C-18 4.34 -18 3.68 -18 3 C-15.36 2.67 -12.72 2.34 -10 2 C-10.2475 2.5775 -10.495 3.155 -10.75 3.75 C-10.8325 4.4925 -10.915 5.235 -11 6 C-9.14567913 8.27144074 -9.14567913 8.27144074 -7 10 C-6.34 7.69 -5.68 5.38 -5 3 C-5.66 3 -6.32 3 -7 3 C-7 2.34 -7 1.68 -7 1 C-4.50935112 0.31292445 -2.62113708 0 0 0 Z " fill="#413D3E" transform="translate(93,36)"/>
<path d="M0 0 C1.65 0 3.3 0 5 0 C5.06058594 0.69867188 5.12117187 1.39734375 5.18359375 2.1171875 C5.26738281 3.02726563 5.35117188 3.93734375 5.4375 4.875 C5.51871094 5.77992188 5.59992188 6.68484375 5.68359375 7.6171875 C5.86989285 10.01110861 5.86989285 10.01110861 7 12 C5.35 12.33 3.7 12.66 2 13 C2 10.69 2 8.38 2 6 C1.34 8.64 0.68 11.28 0 14 C-0.66 14 -1.32 14 -2 14 C-2.99 11.69 -3.98 9.38 -5 7 C-5.15149298 10.62885324 -5.15149298 10.62885324 -4 14 C-4.99 14 -5.98 14 -7 14 C-7.06058594 13.30132812 -7.12117188 12.60265625 -7.18359375 11.8828125 C-7.26738281 10.97273437 -7.35117188 10.06265625 -7.4375 9.125 C-7.51871094 8.22007812 -7.59992188 7.31515625 -7.68359375 6.3828125 C-7.86989285 3.98889139 -7.86989285 3.98889139 -9 2 C-6.6875 1.75 -6.6875 1.75 -4 2 C-2.1875 4 -2.1875 4 -1 6 C-0.67 4.02 -0.34 2.04 0 0 Z " fill="#3D393A" transform="translate(135,173)"/>
<path d="M0 0 C2.31 0 4.62 0 7 0 C7 1.32 7 2.64 7 4 C8.65 3.67 10.3 3.34 12 3 C13.5625 4.8125 13.5625 4.8125 15 7 C14.67 7.99 14.34 8.98 14 10 C13.34 10 12.68 10 12 10 C12 11.32 12 12.64 12 14 C11.34 14 10.68 14 10 14 C10 12.35 10 10.7 10 9 C10.66 9 11.32 9 12 9 C9.77810176 6.77810176 7.91517292 6.07401108 5 5 C5 4.01 5 3.02 5 2 C4.01 2 3.02 2 2 2 C2 2.99 2 3.98 2 5 C1.21625 5.309375 0.4325 5.61875 -0.375 5.9375 C-2.92330128 6.92875038 -2.92330128 6.92875038 -5 8 C-4.67 9.32 -4.34 10.64 -4 12 C-5.32 11.01 -6.64 10.02 -8 9 C-7.49396008 6.83125748 -7.00016187 5.00032373 -6 3 C-4.35 3 -2.7 3 -1 3 C-0.67 2.01 -0.34 1.02 0 0 Z " fill="#191919" transform="translate(139,118)"/>
<path d="M0 0 C1.65 0.33 3.3 0.66 5 1 C5 1.66 5 2.32 5 3 C4.34 3 3.68 3 3 3 C3 3.99 3 4.98 3 6 C4.32 6.33 5.64 6.66 7 7 C7 5.68 7 4.36 7 3 C8.65 3.33 10.3 3.66 12 4 C11.71125 4.53109375 11.4225 5.0621875 11.125 5.609375 C10.75375 6.31578125 10.3825 7.0221875 10 7.75 C9.443125 8.79414063 9.443125 8.79414063 8.875 9.859375 C7.74775351 12.23167757 7.74775351 12.23167757 8 16 C6.35 15.67 4.7 15.34 3 15 C3 14.34 3 13.68 3 13 C3.66 13 4.32 13 5 13 C5.33 11.68 5.66 10.36 6 9 C4.35 8.67 2.7 8.34 1 8 C1 9.65 1 11.3 1 13 C-0.65 12.67 -2.3 12.34 -4 12 C-4 11.34 -4 10.68 -4 10 C-3.34 10 -2.68 10 -2 10 C-1.34 6.7 -0.68 3.4 0 0 Z " fill="#423E3F" transform="translate(57,165)"/>
<path d="M0 0 C0.97608217 2.92824652 1.08226668 4.95613276 1 8 C2.98 8.66 4.96 9.32 7 10 C7 10.66 7 11.32 7 12 C5.3125 12.6875 5.3125 12.6875 3 13 C0.25 11.5625 0.25 11.5625 -2 10 C-1.505 10.45375 -1.01 10.9075 -0.5 11.375 C1 13 1 13 1 15 C-0.65 15.33 -2.3 15.66 -4 16 C-4.19335938 15.28972656 -4.38671875 14.57945312 -4.5859375 13.84765625 C-4.84632813 12.92855469 -5.10671875 12.00945312 -5.375 11.0625 C-5.63023437 10.14597656 -5.88546875 9.22945312 -6.1484375 8.28515625 C-6.76660104 5.83254913 -6.76660104 5.83254913 -9 5 C-7.35 4.34 -5.7 3.68 -4 3 C-3.67 4.32 -3.34 5.64 -3 7 C-3.0928125 5.824375 -3.0928125 5.824375 -3.1875 4.625 C-3.125625 3.75875 -3.06375 2.8925 -3 2 C-2.01 1.34 -1.02 0.68 0 0 Z " fill="#3A3738" transform="translate(177,158)"/>
<path d="M0 0 C2.31 0 4.62 0 7 0 C7 0.33 7 0.66 7 1 C5.35 1 3.7 1 2 1 C2.33 4.96 2.66 8.92 3 13 C-5.25 13 -13.5 13 -22 13 C-21.67 12.34 -21.34 11.68 -21 11 C-20.34 11 -19.68 11 -19 11 C-19 8.36 -19 5.72 -19 3 C-18.67 3 -18.34 3 -18 3 C-18 5.64 -18 8.28 -18 11 C-12.06 11 -6.12 11 0 11 C0 7.37 0 3.74 0 0 Z " fill="#030303" transform="translate(117,137)"/>
<path d="M0 0 C2 3 2 3 3 6 C-0.41099168 6 -3.63088314 5.50854594 -7 5 C-7 4.67 -7 4.34 -7 4 C-24.82 3.67 -42.64 3.34 -61 3 C-61 2.67 -61 2.34 -61 2 C-60.26528473 1.98969254 -59.53056946 1.97938507 -58.77359009 1.96876526 C-51.85754708 1.87088317 -44.94158638 1.76838202 -38.02569008 1.66066074 C-34.46995791 1.60544085 -30.91421749 1.55202237 -27.35839844 1.50268555 C-23.27269398 1.44591832 -19.18714475 1.38137946 -15.1015625 1.31640625 C-13.82133209 1.29969376 -12.54110168 1.28298126 -11.22207642 1.26576233 C-10.04100311 1.24581711 -8.85992981 1.22587189 -7.64306641 1.20532227 C-6.59937897 1.18977798 -5.55569153 1.1742337 -4.4803772 1.15821838 C-1.99858218 1.16152796 -1.99858218 1.16152796 0 0 Z " fill="#484848" transform="translate(126,134)"/>
<path d="M0 0 C0.99 0.33 1.98 0.66 3 1 C3 1.66 3 2.32 3 3 C2.34 3 1.68 3 1 3 C1.99 4.485 1.99 4.485 3 6 C3.125 8.6875 3.125 8.6875 3 11 C2.34 11 1.68 11 1 11 C1 11.99 1 12.98 1 14 C1.598125 13.79375 2.19625 13.5875 2.8125 13.375 C5 13 5 13 8 15 C8 15.99 8 16.98 8 18 C9.65 17.34 11.3 16.68 13 16 C13 17.32 13 18.64 13 20 C10.69 20 8.38 20 6 20 C6 18.68 6 17.36 6 16 C5.05125 16.061875 4.1025 16.12375 3.125 16.1875 C2.09375 16.125625 1.0625 16.06375 0 16 C-2 13 -2 13 -2 10 C-1.34 10 -0.68 10 0 10 C0 8.68 0 7.36 0 6 C-0.66 6 -1.32 6 -2 6 C-1.49396008 3.83125748 -1.00016187 2.00032373 0 0 Z " fill="#2A2A2A" transform="translate(74,93)"/>
<path d="M0 0 C1.32 0 2.64 0 4 0 C4.33 4.29 4.66 8.58 5 13 C3.35 13 1.7 13 0 13 C0.66 12.67 1.32 12.34 2 12 C2 11.01 2 10.02 2 9 C0.35 9 -1.3 9 -3 9 C-2.67 9.99 -2.34 10.98 -2 12 C-3.65 12 -5.3 12 -7 12 C-7 11.34 -7 10.68 -7 10 C-6.34 10 -5.68 10 -5 10 C-4.731875 9.278125 -4.46375 8.55625 -4.1875 7.8125 C-2.98468325 4.96372348 -1.84672962 2.48598219 0 0 Z " fill="#494647" transform="translate(84,173)"/>
<path d="M0 0 C1.65 0 3.3 0 5 0 C5 3.3 5 6.6 5 10 C5.99 10 6.98 10 8 10 C8 6.7 8 3.4 8 0 C9.32 0.33 10.64 0.66 12 1 C11.91253716 2.43861294 11.80434652 3.87597508 11.6875 5.3125 C11.62949219 6.11300781 11.57148437 6.91351563 11.51171875 7.73828125 C10.90846227 10.40458281 10.15985577 11.36184852 8 13 C5.4375 13.3125 5.4375 13.3125 3 13 C0.41073669 10.41073669 0.62601957 8.97294721 0.375 5.375 C0.30023438 4.37210938 0.22546875 3.36921875 0.1484375 2.3359375 C0.09945312 1.56507813 0.05046875 0.79421875 0 0 Z " fill="#3F3B3C" transform="translate(102,176)"/>
<path d="M0 0 C0.66 0 1.32 0 2 0 C2.14305665 4.21750788 2.28545537 8.43503731 2.42724609 12.65258789 C2.47556798 14.0871643 2.52406923 15.52173468 2.57275391 16.95629883 C2.64272531 19.01902734 2.71205038 21.08177672 2.78125 23.14453125 C2.8440918 25.00621948 2.8440918 25.00621948 2.90820312 26.90551758 C2.96844711 28.93634879 3 30.96827543 3 33 C1.02 31.68 -0.96 30.36 -3 29 C-2.01 28.67 -1.02 28.34 0 28 C0 18.76 0 9.52 0 0 Z " fill="#040404" transform="translate(153,87)"/>
<path d="M0 0 C2.04119788 1.61594832 4.04072937 3.2856382 6 5 C6 5.66 6 6.32 6 7 C5.525625 7.4125 5.05125 7.825 4.5625 8.25 C2.41260332 10.65788428 2.34954602 12.85408584 2 16 C3.32 15.67 4.64 15.34 6 15 C6 15.66 6 16.32 6 17 C3.69 17.66 1.38 18.32 -1 19 C-1.02705308 16.58325776 -1.04686438 14.1668206 -1.0625 11.75 C-1.07087891 11.06808594 -1.07925781 10.38617188 -1.08789062 9.68359375 C-1.10428392 6.30657446 -1.05628768 3.22708361 0 0 Z " fill="#545151" transform="translate(54,51)"/>
<path d="M0 0 C3.29714793 0.32971479 4.6226839 0.6226839 7 3 C6.44444444 7.55555556 6.44444444 7.55555556 5 9 C2.5625 9.1875 2.5625 9.1875 0 9 C-2 7 -2 7 -2.25 4.5 C-2 2 -2 2 0 0 Z " fill="#686868" transform="translate(140,125)"/>
<path d="M0 0 C0.66 0.66 1.32 1.32 2 2 C-0.50090922 3.25045461 -2.39566354 3.14217735 -5.1875 3.25 C-12.40702812 3.8366458 -16.00804977 6.9189078 -21 12 C-21 8.38649466 -19.82834239 7.06753103 -17.47265625 4.4296875 C-12.52904794 -0.3696776 -6.58061358 -0.91134397 0 0 Z " fill="#1E1E1E" transform="translate(147,111)"/>
<path d="M0 0 C2.5625 0.1875 2.5625 0.1875 4.5625 2.1875 C4.1875 5.3125 4.1875 5.3125 3.5625 8.1875 C1.25 8.875 1.25 8.875 -1.4375 9.1875 C-3.3125 8.0625 -3.3125 8.0625 -4.4375 6.1875 C-3.87661439 0.29820111 -3.87661439 0.29820111 0 0 Z " fill="#272727" transform="translate(83.4375,96.8125)"/>
<path d="M0 0 C0.99 0 1.98 0 3 0 C2.67 3.96 2.34 7.92 2 12 C0.02 12 -1.96 12 -4 12 C-5 9 -5 9 -4.00390625 6.73828125 C-3.52824219 5.93777344 -3.05257812 5.13726562 -2.5625 4.3125 C-2.08941406 3.50425781 -1.61632812 2.69601563 -1.12890625 1.86328125 C-0.75636719 1.24839844 -0.38382812 0.63351563 0 0 Z " fill="#575455" transform="translate(115,36)"/>
<path d="M0 0 C3.96 0 7.92 0 12 0 C11.01 0.66 10.02 1.32 9 2 C8.63637182 4.20725073 8.63637182 4.20725073 8.8125 6.625 C8.83957031 7.44226563 8.86664063 8.25953125 8.89453125 9.1015625 C8.92933594 9.72804687 8.96414062 10.35453125 9 11 C7.0625 11.5625 7.0625 11.5625 5 12 C4 11 4 11 3.90234375 8.93359375 C3.91974609 7.69802734 3.91974609 7.69802734 3.9375 6.4375 C3.94652344 5.61121094 3.95554687 4.78492188 3.96484375 3.93359375 C3.97644531 3.29550781 3.98804687 2.65742188 4 2 C2.68 1.34 1.36 0.68 0 0 Z " fill="#D6D5D5" transform="translate(102,175)"/>
<path d="M0 0 C1.98 0 3.96 0 6 0 C5.34 2.64 4.68 5.28 4 8 C4.66 8 5.32 8 6 8 C6 8.99 6 9.98 6 11 C4.02 11.33 2.04 11.66 0 12 C-0.33 12.99 -0.66 13.98 -1 15 C-1.66 15 -2.32 15 -3 15 C-3 13.35 -3 11.7 -3 10 C-1.68 9.67 -0.36 9.34 1 9 C1.07427838 5.65747276 1.06546953 3.1964086 0 0 Z " fill="#E7E7E7" transform="translate(86,96)"/>
<path d="M0 0 C1.32 0.99 2.64 1.98 4 3 C3.01 3.33 2.02 3.66 1 4 C1 5.65 1 7.3 1 9 C2.32 9 3.64 9 5 9 C5 6.69 5 4.38 5 2 C5.66 1.67 6.32 1.34 7 1 C7.12375 1.969375 7.2475 2.93875 7.375 3.9375 C7.58125 4.948125 7.7875 5.95875 8 7 C8.66 7.33 9.32 7.66 10 8 C9.01 8.66 8.02 9.32 7 10 C6.01 11.485 6.01 11.485 5 13 C2.625 12.75 2.625 12.75 0 12 C-1.1875 10 -1.1875 10 -2 8 C-2.66 7.67 -3.32 7.34 -4 7 C-4 6.34 -4 5.68 -4 5 C-3.01 5 -2.02 5 -1 5 C-0.67 3.35 -0.34 1.7 0 0 Z " fill="#CCCCCC" transform="translate(101,105)"/>
<path d="M0 0 C0.99 0 1.98 0 3 0 C3 0.99 3 1.98 3 3 C3.66 3.33 4.32 3.66 5 4 C3 6 3 6 0.625 6.3125 C-2.90551975 7.23715993 -3.96943462 9.06696112 -6 12 C-6.66 9.69 -7.32 7.38 -8 5 C-2.25 3 -2.25 3 0 3 C0 2.01 0 1.02 0 0 Z " fill="#E0E0E0" transform="translate(141,120)"/>
<path d="M0 0 C0.33 1.32 0.66 2.64 1 4 C1.66 4 2.32 4 3 4 C2.49396008 6.16874252 2.00016187 7.99967627 1 10 C-0.175625 9.9071875 -0.175625 9.9071875 -1.375 9.8125 C-2.674375 9.9053125 -2.674375 9.9053125 -4 10 C-4.99 11.485 -4.99 11.485 -6 13 C-7.32 12.34 -8.64 11.68 -10 11 C-9.34 11 -8.68 11 -8 11 C-7.67 10.01 -7.34 9.02 -7 8 C-3.535 7.505 -3.535 7.505 0 7 C-0.33 6.01 -0.66 5.02 -1 4 C-0.5625 1.8125 -0.5625 1.8125 0 0 Z " fill="#2D2D2D" transform="translate(151,128)"/>
<path d="M0 0 C2.5 0.125 2.5 0.125 3.5 1.125 C3.54063832 2.79117115 3.542721 4.45888095 3.5 6.125 C1.5085944 6.50633299 -0.49279077 6.83825582 -2.5 7.125 C-3.5 6.125 -3.5 6.125 -3.625 3.625 C-3.45661291 0.25725827 -3.36774173 0.16838709 0 0 Z " fill="#595959" transform="translate(70.5,127.875)"/>
<path d="M0 0 C0.99 0.33 1.98 0.66 3 1 C3 1.99 3 2.98 3 4 C3.66 4 4.32 4 5 4 C4.125 8.75 4.125 8.75 3 11 C0.36 11 -2.28 11 -5 11 C-4.67 10.01 -4.34 9.02 -4 8 C-2.0625 7.25 -2.0625 7.25 0 7 C0.66 7.33 1.32 7.66 2 8 C2 7.01 2 6.02 2 5 C1.34 5 0.68 5 0 5 C0 3.35 0 1.7 0 0 Z " fill="#2D2D2D" transform="translate(90,99)"/>
<path d="M0 0 C1.65 0.33 3.3 0.66 5 1 C4.71125 1.53109375 4.4225 2.0621875 4.125 2.609375 C3.75375 3.31578125 3.3825 4.0221875 3 4.75 C2.62875 5.44609375 2.2575 6.1421875 1.875 6.859375 C0.74775351 9.23167757 0.74775351 9.23167757 1 13 C-0.65 12.67 -2.3 12.34 -4 12 C-4 11.34 -4 10.68 -4 10 C-3.34 10 -2.68 10 -2 10 C-2 8.35 -2 6.7 -2 5 C-1.34 5 -0.68 5 0 5 C0 3.35 0 1.7 0 0 Z " fill="#373435" transform="translate(64,168)"/>
<path d="M0 0 C2.475 0.99 2.475 0.99 5 2 C5 3.32 5 4.64 5 6 C5.66 6.33 6.32 6.66 7 7 C7 8.65 7 10.3 7 12 C5.68 12 4.36 12 3 12 C2.87625 11.236875 2.7525 10.47375 2.625 9.6875 C2.11897208 6.79732864 2.11897208 6.79732864 0 4 C0 2.68 0 1.36 0 0 Z " fill="#171717" transform="translate(106,103)"/>
<path d="M0 0 C2 2 2 2 2.125 4.625 C2.08375 5.40875 2.0425 6.1925 2 7 C0.34385343 7.38218767 -1.32457024 7.71395102 -3 8 C-4 7 -4 7 -4.0625 4.4375 C-4.041875 3.633125 -4.02125 2.82875 -4 2 C-2.68 1.34 -1.36 0.68 0 0 Z " fill="#5D5D5D" transform="translate(105,107)"/>
<path d="M0 0 C2.31 0.33 4.62 0.66 7 1 C7.33 2.32 7.66 3.64 8 5 C9.65 4.34 11.3 3.68 13 3 C13 4.32 13 5.64 13 7 C10.69 7 8.38 7 6 7 C6 5.68 6 4.36 6 3 C4.02 3 2.04 3 0 3 C0 2.01 0 1.02 0 0 Z " fill="#111111" transform="translate(74,106)"/>
<path d="M0 0 C0.99 0.33 1.98 0.66 3 1 C3.6953125 2.99609375 3.6953125 2.99609375 4.125 5.4375 C4.73123617 8.8273078 4.73123617 8.8273078 6 12 C4.35 12.33 2.7 12.66 1 13 C0.814375 11.4221875 0.814375 11.4221875 0.625 9.8125 C0.08859218 6.54041229 -0.63880035 3.99463924 -2 1 C-1.34 0.67 -0.68 0.34 0 0 Z " fill="#333031" transform="translate(154,168)"/>
<path d="M0 0 C1.98377512 0.98089103 3.95231668 1.97394623 5.89453125 3.03515625 C10.34001184 5.41634035 13.97144524 6.58095377 19 7 C19 7.33 19 7.66 19 8 C9.26894536 8.62334158 9.26894536 8.62334158 4.4375 6.25 C2.21477342 4.19825238 1.00743126 2.82080752 0 0 Z " fill="#151515" transform="translate(128,140)"/>
<path d="M0 0 C1.65 0 3.3 0 5 0 C4.67 2.31 4.34 4.62 4 7 C5.32 7.66 6.64 8.32 8 9 C5.36 9 2.72 9 0 9 C0 6.03 0 3.06 0 0 Z " fill="#EAEAEA" transform="translate(64,127)"/>
<path d="M0 0 C1.65 0 3.3 0 5 0 C6.4606285 2.64738916 7 3.89448334 7 7 C6.34 7 5.68 7 5 7 C4.67 6.34 4.34 5.68 4 5 C3.84850702 8.62885324 3.84850702 8.62885324 5 12 C4.01 12 3.02 12 2 12 C1.93941406 11.30132812 1.87882812 10.60265625 1.81640625 9.8828125 C1.73261719 8.97273437 1.64882812 8.06265625 1.5625 7.125 C1.48128906 6.22007812 1.40007812 5.31515625 1.31640625 4.3828125 C1.13010715 1.98889139 1.13010715 1.98889139 0 0 Z " fill="#2C2829" transform="translate(126,175)"/>
<path d="M0 0 C1.32 1.32 2.64 2.64 4 4 C3.67 4.99 3.34 5.98 3 7 C2.34 7 1.68 7 1 7 C1 8.32 1 9.64 1 11 C0.34 11 -0.32 11 -1 11 C-1 9.35 -1 7.7 -1 6 C-0.34 6 0.32 6 1 6 C0.34 5.34 -0.32 4.68 -1 4 C-1.66 4 -2.32 4 -3 4 C-3 3.01 -3 2.02 -3 1 C-2.01 0.67 -1.02 0.34 0 0 Z " fill="#1B1B1B" transform="translate(150,121)"/>
<path d="M0 0 C0.33 0.99 0.66 1.98 1 3 C3.01508358 3.73323796 3.01508358 3.73323796 5 4 C4.67 4.99 4.34 5.98 4 7 C2.1875 7.8125 2.1875 7.8125 0 8 C-2.25 7.0625 -2.25 7.0625 -4 6 C-4 4 -4 4 -2 1.875 C-1.34 1.25625 -0.68 0.6375 0 0 Z " fill="#828080" transform="translate(35,160)"/>
<path d="M0 0 C0.66 0.66 1.32 1.32 2 2 C1.625 4.125 1.625 4.125 1 6 C-0.6875 6.75 -0.6875 6.75 -3 7 C-5.75 5.0625 -5.75 5.0625 -8 3 C-6.34385343 2.61781233 -4.67542976 2.28604898 -3 2 C-2.67 2.33 -2.34 2.66 -2 3 C-1.34 2.01 -0.68 1.02 0 0 Z " fill="#2A2A2A" transform="translate(108,114)"/>
<path d="M0 0 C2.93200474 2.85276137 5.64315404 5.65079784 8 9 C7.34 9.66 6.68 10.32 6 11 C4.35 9.02 2.7 7.04 1 5 C0.34 5.99 -0.32 6.98 -1 8 C-1.04241723 5.66705225 -1.04092937 3.33297433 -1 1 C-0.67 0.67 -0.34 0.34 0 0 Z " fill="#3B3839" transform="translate(54,47)"/>
<path d="M0 0 C0.33 0 0.66 0 1 0 C0.66666667 2.33333333 0.33333333 4.66666667 0 7 C-0.144375 8.27875 -0.28875 9.5575 -0.4375 10.875 C-0.623125 11.90625 -0.80875 12.9375 -1 14 C-1.99 14.495 -1.99 14.495 -3 15 C-5.125 14.0625 -5.125 14.0625 -7 13 C-6.55011719 12.61199219 -6.10023438 12.22398438 -5.63671875 11.82421875 C-3.6639014 9.62539846 -2.85108103 7.57011171 -1.8125 4.8125 C-1.46832031 3.91144531 -1.12414062 3.01039062 -0.76953125 2.08203125 C-0.51558594 1.39496094 -0.26164063 0.70789062 0 0 Z " fill="#474445" transform="translate(141,47)"/>
<path d="M0 0 C0 0.66 0 1.32 0 2 C-0.99 2.495 -0.99 2.495 -2 3 C-2.90725434 5.11327425 -2.90725434 5.11327425 -3.625 7.5625 C-4.01558594 8.80193359 -4.01558594 8.80193359 -4.4140625 10.06640625 C-4.60742188 10.70449219 -4.80078125 11.34257813 -5 12 C-5.99 11.67 -6.98 11.34 -8 11 C-7.01 8.36 -6.02 5.72 -5 3 C-5.66 3 -6.32 3 -7 3 C-7 2.34 -7 1.68 -7 1 C-4.50935112 0.31292445 -2.62113708 0 0 0 Z " fill="#575455" transform="translate(93,36)"/>
<path d="M0 0 C1.32 0.99 2.64 1.98 4 3 C3.67 4.32 3.34 5.64 3 7 C0.5625 6.625 0.5625 6.625 -2 6 C-2.33 5.34 -2.66 4.68 -3 4 C-2.01 2.68 -1.02 1.36 0 0 Z " fill="#777576" transform="translate(41,156)"/>
<path d="M0 0 C0.99 0 1.98 0 3 0 C3.33 2.64 3.66 5.28 4 8 C4.99 8.33 5.98 8.66 7 9 C4.69 9.33 2.38 9.66 0 10 C0 6.7 0 3.4 0 0 Z " fill="#393636" transform="translate(84,48)"/>
<path d="M0 0 C1.65 0.33 3.3 0.66 5 1 C5 2.65 5 4.3 5 6 C3.125 6.625 3.125 6.625 1 7 C0.34 6.34 -0.32 5.68 -1 5 C-0.625 2.375 -0.625 2.375 0 0 Z " fill="#7A7A7A" transform="translate(80,98)"/>
<path d="M0 0 C2.86724686 0.57344937 3.8614515 0.8614515 6 3 C5.8125 5.5 5.8125 5.5 5 8 C4.01 8.66 3.02 9.32 2 10 C2.04125 8.906875 2.0825 7.81375 2.125 6.6875 C2.32074666 2.91107771 2.32074666 2.91107771 0 0 Z " fill="#262626" transform="translate(119,148)"/>
<path d="M0 0 C0.4125 0.61875 0.825 1.2375 1.25 1.875 C3.05573879 4.06768281 4.4090534 4.92788417 7 6 C3.33694766 6.74926071 0.57644848 7.2380014 -3 6 C-1.125 1.125 -1.125 1.125 0 0 Z " fill="#E1E1E1" transform="translate(137,129)"/>
<path d="M0 0 C2 0.6875 2 0.6875 4 2.6875 C4.125 5.3125 4.125 5.3125 4 7.6875 C3.4225 7.0275 2.845 6.3675 2.25 5.6875 C0.00346023 3.24459077 0.00346023 3.24459077 -4 3.6875 C-4 2.6975 -4 1.7075 -4 0.6875 C-2 -0.3125 -2 -0.3125 0 0 Z " fill="#D6D6D6" transform="translate(79,103.3125)"/>
<path d="M0 0 C0.66 0.33 1.32 0.66 2 1 C1.67 2.65 1.34 4.3 1 6 C1.66 6.33 2.32 6.66 3 7 C3 7.66 3 8.32 3 9 C1.68 8.67 0.36 8.34 -1 8 C-1.625 5.6875 -1.625 5.6875 -2 3 C-1.34 2.01 -0.68 1.02 0 0 Z " fill="#202020" transform="translate(133,129)"/>
<path d="M0 0 C0.66 0 1.32 0 2 0 C2.33 2.31 2.66 4.62 3 7 C1.35 7 -0.3 7 -2 7 C-1.125 2.25 -1.125 2.25 0 0 Z " fill="#D8D8D8" transform="translate(114,41)"/>
<path d="M0 0 C2.31 0 4.62 0 7 0 C7.33 1.98 7.66 3.96 8 6 C7.01 5.67 6.02 5.34 5 5 C5 4.01 5 3.02 5 2 C4.01 2 3.02 2 2 2 C1.67 2.66 1.34 3.32 1 4 C0.67 2.68 0.34 1.36 0 0 Z " fill="#0D0D0D" transform="translate(139,118)"/>
<path d="M0 0 C1.62463842 -0.05395478 3.24978541 -0.09277195 4.875 -0.125 C5.77992188 -0.14820312 6.68484375 -0.17140625 7.6171875 -0.1953125 C10 0 10 0 12 2 C9.59454362 3.20272819 8.05003047 3.10071472 5.375 3.0625 C4.14910156 3.04896484 4.14910156 3.04896484 2.8984375 3.03515625 C1.95871094 3.01775391 1.95871094 3.01775391 1 3 C0.67 2.01 0.34 1.02 0 0 Z " fill="#4D4D4D" transform="translate(137,111)"/>
<path d="M0 0 C1.33333333 2.66666667 2.66666667 5.33333333 4 8 C1.36 8 -1.28 8 -4 8 C-3.01 7.67 -2.02 7.34 -1 7 C-1.020625 6.030625 -1.04125 5.06125 -1.0625 4.0625 C-1 1 -1 1 0 0 Z " fill="#343031" transform="translate(119,49)"/>
<path d="M0 0 C1.65 0.33 3.3 0.66 5 1 C4.67 2.32 4.34 3.64 4 5 C3.34 5 2.68 5 2 5 C1.67 5.66 1.34 6.32 1 7 C-0.0625 4.625 -0.0625 4.625 -1 2 C-0.67 1.34 -0.34 0.68 0 0 Z " fill="#DFDEDE" transform="translate(58,173)"/>
<path d="M0 0 C0.66 0.33 1.32 0.66 2 1 C2.59355614 3.64860427 2.74209269 6.29197322 3 9 C2.34 9 1.68 9 1 9 C0.71125 8.030625 0.4225 7.06125 0.125 6.0625 C-0.64214682 2.89335797 -0.64214682 2.89335797 -3 2 C-2.01 1.34 -1.02 0.68 0 0 Z " fill="#353132" transform="translate(171,161)"/>
<path d="M0 0 C0.66 0 1.32 0 2 0 C2.66 2.64 3.32 5.28 4 8 C1 8 1 8 -1.1875 6 C-1.785625 5.34 -2.38375 4.68 -3 4 C-2.01 4 -1.02 4 0 4 C0 2.68 0 1.36 0 0 Z " fill="#111111" transform="translate(153,111)"/>
<path d="M0 0 C1.7074998 1.28062485 3.37373596 2.61767557 5 4 C5 4.66 5 5.32 5 6 C3.35 6.33 1.7 6.66 0 7 C0 4.69 0 2.38 0 0 Z " fill="#DFDEDE" transform="translate(55,52)"/>
<path d="M0 0 C2 3 2 3 2 5 C2.66 5.33 3.32 5.66 4 6 C4 6.66 4 7.32 4 8 C2.35 8.33 0.7 8.66 -1 9 C-1.09765625 2.84765625 -1.09765625 2.84765625 -1 1 C-0.67 0.67 -0.34 0.34 0 0 Z " fill="#504D4E" transform="translate(174,165)"/>
<path d="M0 0 C2 3 2 3 3 6 C-0.41099168 6 -3.63088314 5.50854594 -7 5 C-7 4.67 -7 4.34 -7 4 C-5.824375 3.8453125 -5.824375 3.8453125 -4.625 3.6875 C-1.66954819 3.22404978 -1.66954819 3.22404978 0 0 Z " fill="#343434" transform="translate(126,134)"/>
<path d="M0 0 C1.65 0 3.3 0 5 0 C4.01 0.33 3.02 0.66 2 1 C2 2.32 2 3.64 2 5 C-0.375 5.625 -0.375 5.625 -3 6 C-3.66 5.34 -4.32 4.68 -5 4 C-4.0409375 3.8453125 -4.0409375 3.8453125 -3.0625 3.6875 C-2.381875 3.460625 -1.70125 3.23375 -1 3 C-0.67 2.01 -0.34 1.02 0 0 Z " fill="#141414" transform="translate(80,90)"/>
<path d="M0 0 C2.475 0.99 2.475 0.99 5 2 C3.14265723 5.18401617 1.22382199 8.03490401 -1 11 C-0.67 7.37 -0.34 3.74 0 0 Z " fill="#3D393A" transform="translate(154,46)"/>
<path d="M0 0 C3 1 3 1 4.25 3.3125 C5.0275526 6.09873015 4.98726527 7.33438378 4 10 C4 9.01 4 8.02 4 7 C3.34 7 2.68 7 2 7 C0.5393715 4.35261084 0 3.10551666 0 0 Z " fill="#272727" transform="translate(156,119)"/>
<path d="M0 0 C0.99 1.32 1.98 2.64 3 4 C2.67 4.66 2.34 5.32 2 6 C0.35 5.67 -1.3 5.34 -3 5 C-2.67 4.01 -2.34 3.02 -2 2 C-1.34 2 -0.68 2 0 2 C0 1.34 0 0.68 0 0 Z " fill="#E5E5E5" transform="translate(62,166)"/>
<path d="M0 0 C1.32 0.99 2.64 1.98 4 3 C3.01 3.33 2.02 3.66 1 4 C0.26676204 6.01508358 0.26676204 6.01508358 0 8 C-1.32 7.67 -2.64 7.34 -4 7 C-4 6.34 -4 5.68 -4 5 C-3.01 5 -2.02 5 -1 5 C-0.67 3.35 -0.34 1.7 0 0 Z " fill="#B7B7B7" transform="translate(101,105)"/>
<path d="M0 0 C2.50037734 2.17424117 3.43628586 3.73045798 4 7 C3.01 7 2.02 7 1 7 C0 6 0 6 -0.0625 2.9375 C-0.041875 1.968125 -0.02125 0.99875 0 0 Z " fill="#B9B8B8" transform="translate(129,179)"/>
<path d="M0 0 C2 3 2 3 1.625 5.6875 C1.41875 6.450625 1.2125 7.21375 1 8 C0.34 8 -0.32 8 -1 8 C-1.625 5.6875 -1.625 5.6875 -2 3 C-1.34 2.01 -0.68 1.02 0 0 Z " fill="#4E4B4C" transform="translate(134,179)"/>
<path d="M0 0 C0.99 0.33 1.98 0.66 3 1 C3 1.99 3 2.98 3 4 C3.66 4.33 4.32 4.66 5 5 C5 5.66 5 6.32 5 7 C1.125 6.125 1.125 6.125 0 5 C-0.04063832 3.33382885 -0.042721 1.66611905 0 0 Z " fill="#131313" transform="translate(138,127)"/>
<path d="M0 0 C0.66 0 1.32 0 2 0 C2 0.66 2 1.32 2 2 C2.66 2 3.32 2 4 2 C3.42655063 4.86724686 3.1385485 5.8614515 1 8 C0.34 5.69 -0.32 3.38 -1 1 C-0.67 0.67 -0.34 0.34 0 0 Z " fill="#CECECE" transform="translate(134,124)"/>
<path d="M0 0 C1.65 0 3.3 0 5 0 C5.33 1.65 5.66 3.3 6 5 C5.34 5 4.68 5 4 5 C4 4.01 4 3.02 4 2 C2.68 2.33 1.36 2.66 0 3 C0 2.01 0 1.02 0 0 Z " fill="#101010" transform="translate(68,128)"/>
<path d="M0 0 C1.65 0 3.3 0 5 0 C5 0.99 5 1.98 5 3 C3.35 3.33 1.7 3.66 0 4 C0 2.68 0 1.36 0 0 Z " fill="#CCCBCB" transform="translate(81,182)"/>
<path d="M0 0 C2.00720923 0.28674418 4.0085944 0.61866701 6 1 C6 1.66 6 2.32 6 3 C4.1875 3.6875 4.1875 3.6875 2 4 C0.25 2.5625 0.25 2.5625 -1 1 C-0.67 0.67 -0.34 0.34 0 0 Z " fill="#484546" transform="translate(178,167)"/>
<path d="M0 0 C0.33 0 0.66 0 1 0 C1.042721 1.66611905 1.04063832 3.33382885 1 5 C0 6 0 6 -2.5625 6.0625 C-3.7690625 6.0315625 -3.7690625 6.0315625 -5 6 C-5 5.34 -5 4.68 -5 4 C-3.35 3.67 -1.7 3.34 0 3 C0 2.01 0 1.02 0 0 Z " fill="#423F40" transform="translate(41,163)"/>
<path d="M0 0 C1.32 0 2.64 0 4 0 C4 1.65 4 3.3 4 5 C2.68 5.33 1.36 5.66 0 6 C0 5.34 0 4.68 0 4 C0.66 4 1.32 4 2 4 C2 3.01 2 2.02 2 1 C1.34 0.67 0.68 0.34 0 0 Z " fill="#111111" transform="translate(103,109)"/>
<path d="M0 0 C0.99 0 1.98 0 3 0 C3.125 2.875 3.125 2.875 3 6 C2.34 6.66 1.68 7.32 1 8 C0.67 5.36 0.34 2.72 0 0 Z " fill="#4A4748" transform="translate(115,36)"/>
</svg>
